<svg width="97" height="78" viewBox="0 0 97 78" fill="none" xmlns="http://www.w3.org/2000/svg">
<rect x="0.75" y="0.236363" width="96.1017" height="77.0493" rx="38.5247" fill="#FB7D5B"/>
<g clip-path="url(#clip0_2_491)">
<path fill-rule="evenodd" clip-rule="evenodd" d="M28.7797 54.813C28.7797 57.0295 31.0204 58.826 33.785 58.826H63.8167C66.5813 58.826 68.822 57.0295 68.822 54.813C68.822 51.6909 68.822 46.5864 68.822 43.6689C68.822 41.7293 67.0919 40.0679 64.7127 39.7215C61.1856 39.2065 55.1042 38.3196 51.6639 37.8193C49.7702 37.5424 47.8315 37.5424 45.9378 37.8193C42.4975 38.3196 36.4161 39.2065 32.889 39.7215C30.5098 40.0679 28.7797 41.7293 28.7797 43.6689V54.813ZM52.6516 40.6819L55.1559 48.316C55.4846 49.3179 55.0441 50.3813 54.0331 51.0287C53.1788 51.5745 51.8324 52.436 50.8981 53.0352C49.6718 53.8191 47.9299 53.8191 46.7036 53.0352C45.7693 52.436 44.4229 51.5745 43.5686 51.0287C42.5576 50.3813 42.1171 49.3179 42.4458 48.316L44.9501 40.6819L33.4863 42.3527C32.6938 42.469 32.1165 43.0228 32.1165 43.6689V54.813C32.1165 55.5514 32.864 56.1506 33.785 56.1506C40.7657 56.1506 56.836 56.1506 63.8167 56.1506C64.7377 56.1506 65.4852 55.5514 65.4852 54.813C65.4852 51.6909 65.4852 46.5864 65.4852 43.6689C65.4852 43.0228 64.9079 42.469 64.1154 42.3527L52.6516 40.6819ZM49.0728 40.29C48.8909 40.286 48.7108 40.286 48.5289 40.29L45.6859 48.9607L48.7858 50.9431C48.7942 50.9498 48.8075 50.9498 48.8159 50.9431L51.9158 48.9607L49.0728 40.29ZM48.8008 18.6961C42.8162 18.6961 37.956 22.5927 37.956 27.3909C37.956 32.1891 42.8162 36.0857 48.8008 36.0857C54.7855 36.0857 59.6457 32.1891 59.6457 27.3909C59.6457 22.5927 54.7855 18.6961 48.8008 18.6961ZM48.8008 21.3714C52.9452 21.3714 56.3088 24.0682 56.3088 27.3909C56.3088 30.7137 52.9452 33.4104 48.8008 33.4104C44.6565 33.4104 41.2929 30.7137 41.2929 27.3909C41.2929 24.0682 44.6565 21.3714 48.8008 21.3714Z" fill="white"/>
</g>
<defs>
<clipPath id="clip0_2_491">
<rect width="53.3898" height="42.8052" fill="white" transform="translate(22.106 17.3584)"/>
</clipPath>
</defs>
</svg>
