<svg width="97" height="78" viewBox="0 0 97 78" fill="none" xmlns="http://www.w3.org/2000/svg">
<rect x="0.580566" y="0.306494" width="96.1017" height="77.0493" rx="38.5247" fill="#FCC43E"/>
<path d="M61.9789 26.7922H58.642V25.4545C58.642 25.0998 58.4663 24.7595 58.1534 24.5087C57.8405 24.2578 57.4161 24.1169 56.9736 24.1169C56.5311 24.1169 56.1067 24.2578 55.7938 24.5087C55.4809 24.7595 55.3052 25.0998 55.3052 25.4545V26.7922H50.2999V25.4545C50.2999 25.0998 50.1241 24.7595 49.8112 24.5087C49.4983 24.2578 49.0739 24.1169 48.6314 24.1169C48.1889 24.1169 47.7646 24.2578 47.4517 24.5087C47.1388 24.7595 46.963 25.0998 46.963 25.4545V26.7922H41.9577V25.4545C41.9577 25.0998 41.7819 24.7595 41.469 24.5087C41.1561 24.2578 40.7318 24.1169 40.2893 24.1169C39.8468 24.1169 39.4224 24.2578 39.1095 24.5087C38.7966 24.7595 38.6208 25.0998 38.6208 25.4545V26.7922H35.284C33.9565 26.7922 32.6834 27.215 31.7447 27.9676C30.806 28.7202 30.2787 29.7409 30.2787 30.8052V49.5325C30.2787 50.5968 30.806 51.6175 31.7447 52.3701C32.6834 53.1227 33.9565 53.5455 35.284 53.5455H61.9789C63.3064 53.5455 64.5795 53.1227 65.5182 52.3701C66.4569 51.6175 66.9842 50.5968 66.9842 49.5325V30.8052C66.9842 29.7409 66.4569 28.7202 65.5182 27.9676C64.5795 27.215 63.3064 26.7922 61.9789 26.7922ZM33.6156 30.8052C33.6156 30.4504 33.7913 30.1102 34.1042 29.8593C34.4171 29.6085 34.8415 29.4675 35.284 29.4675H38.6208V30.8052C38.6208 31.16 38.7966 31.5002 39.1095 31.7511C39.4224 32.0019 39.8468 32.1429 40.2893 32.1429C40.7318 32.1429 41.1561 32.0019 41.469 31.7511C41.7819 31.5002 41.9577 31.16 41.9577 30.8052V29.4675H46.963V30.8052C46.963 31.16 47.1388 31.5002 47.4517 31.7511C47.7646 32.0019 48.1889 32.1429 48.6314 32.1429C49.0739 32.1429 49.4983 32.0019 49.8112 31.7511C50.1241 31.5002 50.2999 31.16 50.2999 30.8052V29.4675H55.3052V30.8052C55.3052 31.16 55.4809 31.5002 55.7938 31.7511C56.1067 32.0019 56.5311 32.1429 56.9736 32.1429C57.4161 32.1429 57.8405 32.0019 58.1534 31.7511C58.4663 31.5002 58.642 31.16 58.642 30.8052V29.4675H61.9789C62.4214 29.4675 62.8458 29.6085 63.1587 29.8593C63.4715 30.1102 63.6473 30.4504 63.6473 30.8052V34.8182H33.6156V30.8052ZM63.6473 49.5325C63.6473 49.8872 63.4715 50.2275 63.1587 50.4783C62.8458 50.7292 62.4214 50.8701 61.9789 50.8701H35.284C34.8415 50.8701 34.4171 50.7292 34.1042 50.4783C33.7913 50.2275 33.6156 49.8872 33.6156 49.5325V37.4935H63.6473V49.5325Z" fill="white"/>
</svg>
