<svg width="97" height="78" viewBox="0 0 97 78" fill="none" xmlns="http://www.w3.org/2000/svg">
<rect x="0.550842" y="0.236363" width="96.1017" height="77.0493" rx="38.5247" fill="#4D44B5"/>
<g clip-path="url(#clip0_2_483)">
<path fill-rule="evenodd" clip-rule="evenodd" d="M45.8371 58.826H33.5858C30.8212 58.826 28.5805 57.0295 28.5805 54.813V43.6689C28.5805 41.7293 30.3107 40.0679 32.6898 39.7215C36.2169 39.2065 42.2983 38.3196 45.7387 37.8193C47.6323 37.5424 49.5711 37.5424 51.4647 37.8193C54.905 38.3196 60.9865 39.2065 64.5135 39.7215C66.8927 40.0679 68.6229 41.7293 68.6229 43.6689C68.6229 46.5864 68.6229 51.6909 68.6229 54.813C68.6229 57.0295 66.3822 58.826 63.6176 58.826H45.8371ZM61.6622 42.0249L61.6689 42.0316C61.9608 42.3821 62.0292 42.8222 61.854 43.2195L60.6761 45.8948C60.5226 46.2439 60.194 46.5275 59.7702 46.676L57.5545 47.4505L58.4354 48.8644C58.6824 49.259 58.669 49.7258 58.4021 50.1124L54.2176 56.1506H63.6176C64.5386 56.1506 65.286 55.5514 65.286 54.813C65.286 51.6909 65.286 46.5864 65.286 43.6689C65.286 43.0228 64.7087 42.469 63.9162 42.3527L61.6622 42.0249ZM57.099 41.3588L50.8674 40.4505C49.3692 40.2325 47.8342 40.2325 46.336 40.4505L40.1044 41.3588L38.773 42.96L39.432 44.4555L42.5953 45.5604C43.0141 45.7075 43.3395 45.9857 43.4963 46.3309C43.6531 46.676 43.6248 47.0572 43.4195 47.385L42.1449 49.4289L46.8031 56.1506H50.4003L55.0585 49.4289L53.7838 47.385C53.5786 47.0572 53.5503 46.676 53.7071 46.3309C53.8639 45.9857 54.1893 45.7075 54.608 45.5604L57.7714 44.4555L58.4304 42.96L57.099 41.3588ZM35.5412 42.0249L33.2872 42.3527C32.4946 42.469 31.9174 43.0228 31.9174 43.6689V54.813C31.9174 55.5514 32.6648 56.1506 33.5858 56.1506H42.9858L38.8013 50.1124C38.5344 49.7258 38.521 49.259 38.768 48.8644L39.6489 47.4505L37.4332 46.676C37.0094 46.5275 36.6807 46.2439 36.5272 45.8948L35.3493 43.2195C35.1741 42.8222 35.2426 42.3821 35.5345 42.0316L35.5412 42.0249ZM60.2807 49.4623V52.1377C60.2807 52.876 61.0282 53.4753 61.9492 53.4753C62.8701 53.4753 63.6176 52.876 63.6176 52.1377V49.4623C63.6176 48.7239 62.8701 48.1247 61.9492 48.1247C61.0282 48.1247 60.2807 48.7239 60.2807 49.4623ZM48.6017 18.6961C42.617 18.6961 37.7569 22.5927 37.7569 27.3909C37.7569 32.1891 42.617 36.0857 48.6017 36.0857C54.5864 36.0857 59.4465 32.1891 59.4465 27.3909C59.4465 22.5927 54.5864 18.6961 48.6017 18.6961ZM48.6017 21.3714C52.7461 21.3714 56.1096 24.0682 56.1096 27.3909C56.1096 30.7137 52.7461 33.4104 48.6017 33.4104C44.4573 33.4104 41.0937 30.7137 41.0937 27.3909C41.0937 24.0682 44.4573 21.3714 48.6017 21.3714Z" fill="white"/>
</g>
<defs>
<clipPath id="clip0_2_483">
<rect width="53.3898" height="42.8052" fill="white" transform="translate(21.9068 17.3584)"/>
</clipPath>
</defs>
</svg>
